<mxfile host="app.diagrams.net" agent="Mozilla/5.0 (Windows NT 10.0; Win64; x64; rv:133.0) Gecko/20100101 Firefox/133.0" version="25.0.1">
  <diagram name="Page-1" id="4ahvpelCilwKbXSP_rQ5">
    <mxGraphModel dx="2074" dy="1142" grid="1" gridSize="10" guides="1" tooltips="1" connect="1" arrows="1" fold="1" page="1" pageScale="1" pageWidth="827" pageHeight="1169" math="0" shadow="0">
      <root>
        <mxCell id="0" />
        <mxCell id="1" parent="0" />
        <mxCell id="vUV3Uhbr1MPgQ-wkHMo--1" value="" style="rounded=1;whiteSpace=wrap;html=1;" vertex="1" parent="1">
          <mxGeometry x="284.5" y="20" width="539" height="790" as="geometry" />
        </mxCell>
        <mxCell id="PQO7M3FsyzpqnbT5gVS9-13" value="The player chooses to attack" style="rounded=0;whiteSpace=wrap;html=1;" parent="1" vertex="1">
          <mxGeometry x="474" y="280" width="160" height="80" as="geometry" />
        </mxCell>
        <mxCell id="PQO7M3FsyzpqnbT5gVS9-14" value="They can either use a physical or magical attack" style="rounded=0;whiteSpace=wrap;html=1;" parent="1" vertex="1">
          <mxGeometry x="474" y="400" width="160" height="80" as="geometry" />
        </mxCell>
        <mxCell id="PQO7M3FsyzpqnbT5gVS9-24" value="" style="endArrow=classic;html=1;rounded=0;exitX=0.5;exitY=1;exitDx=0;exitDy=0;entryX=0.5;entryY=0;entryDx=0;entryDy=0;" parent="1" source="PQO7M3FsyzpqnbT5gVS9-14" target="PQO7M3FsyzpqnbT5gVS9-37" edge="1">
          <mxGeometry width="50" height="50" relative="1" as="geometry">
            <mxPoint x="554" y="490" as="sourcePoint" />
            <mxPoint x="554" y="570" as="targetPoint" />
          </mxGeometry>
        </mxCell>
        <mxCell id="PQO7M3FsyzpqnbT5gVS9-26" value="" style="endArrow=classic;html=1;rounded=0;entryX=0.5;entryY=0;entryDx=0;entryDy=0;" parent="1" edge="1">
          <mxGeometry width="50" height="50" relative="1" as="geometry">
            <mxPoint x="554" y="360" as="sourcePoint" />
            <mxPoint x="554" y="400" as="targetPoint" />
          </mxGeometry>
        </mxCell>
        <mxCell id="PQO7M3FsyzpqnbT5gVS9-32" value="Player enters a fight" style="rounded=0;whiteSpace=wrap;html=1;" parent="1" vertex="1">
          <mxGeometry x="474" y="30" width="160" height="80" as="geometry" />
        </mxCell>
        <mxCell id="PQO7M3FsyzpqnbT5gVS9-33" value="The fight menu pops up" style="rounded=0;whiteSpace=wrap;html=1;" parent="1" vertex="1">
          <mxGeometry x="474" y="150" width="160" height="80" as="geometry" />
        </mxCell>
        <mxCell id="PQO7M3FsyzpqnbT5gVS9-34" value="" style="endArrow=classic;html=1;rounded=0;" parent="1" edge="1">
          <mxGeometry width="50" height="50" relative="1" as="geometry">
            <mxPoint x="553" y="110" as="sourcePoint" />
            <mxPoint x="553" y="150" as="targetPoint" />
          </mxGeometry>
        </mxCell>
        <mxCell id="PQO7M3FsyzpqnbT5gVS9-36" value="" style="endArrow=classic;html=1;rounded=0;entryX=0.5;entryY=0;entryDx=0;entryDy=0;" parent="1" target="PQO7M3FsyzpqnbT5gVS9-13" edge="1">
          <mxGeometry width="50" height="50" relative="1" as="geometry">
            <mxPoint x="554" y="230" as="sourcePoint" />
            <mxPoint x="554" y="290" as="targetPoint" />
          </mxGeometry>
        </mxCell>
        <mxCell id="PQO7M3FsyzpqnbT5gVS9-37" value="The attack will take into account the enemy&#39;s evasion and calculate whether it will hit or miss" style="rounded=0;whiteSpace=wrap;html=1;" parent="1" vertex="1">
          <mxGeometry x="476" y="530" width="156" height="80" as="geometry" />
        </mxCell>
        <mxCell id="PQO7M3FsyzpqnbT5gVS9-38" value="If the attack was sucessful then it will do damage by calculating the user&#39;s attack and the recipient&#39;s defense" style="rounded=0;whiteSpace=wrap;html=1;" parent="1" vertex="1">
          <mxGeometry x="300" y="640" width="160" height="80" as="geometry" />
        </mxCell>
        <mxCell id="PQO7M3FsyzpqnbT5gVS9-39" value="If the attack misses then no damage is done to the recipient" style="rounded=0;whiteSpace=wrap;html=1;" parent="1" vertex="1">
          <mxGeometry x="650" y="640" width="160" height="80" as="geometry" />
        </mxCell>
        <mxCell id="PQO7M3FsyzpqnbT5gVS9-40" value="" style="endArrow=classic;html=1;rounded=0;entryX=0.25;entryY=0;entryDx=0;entryDy=0;" parent="1" target="PQO7M3FsyzpqnbT5gVS9-39" edge="1">
          <mxGeometry width="50" height="50" relative="1" as="geometry">
            <mxPoint x="632" y="610" as="sourcePoint" />
            <mxPoint x="682" y="560" as="targetPoint" />
          </mxGeometry>
        </mxCell>
        <mxCell id="PQO7M3FsyzpqnbT5gVS9-41" value="" style="endArrow=classic;html=1;rounded=0;entryX=0.75;entryY=0;entryDx=0;entryDy=0;" parent="1" target="PQO7M3FsyzpqnbT5gVS9-38" edge="1">
          <mxGeometry width="50" height="50" relative="1" as="geometry">
            <mxPoint x="476" y="610" as="sourcePoint" />
            <mxPoint x="526" y="560" as="targetPoint" />
          </mxGeometry>
        </mxCell>
        <mxCell id="vUV3Uhbr1MPgQ-wkHMo--2" value="Player" style="shape=umlActor;verticalLabelPosition=bottom;verticalAlign=top;html=1;outlineConnect=0;" vertex="1" parent="1">
          <mxGeometry x="40" y="280" width="40" height="80" as="geometry" />
        </mxCell>
        <mxCell id="vUV3Uhbr1MPgQ-wkHMo--3" value="" style="endArrow=classic;html=1;rounded=0;entryX=0;entryY=0.5;entryDx=0;entryDy=0;" edge="1" parent="1" target="PQO7M3FsyzpqnbT5gVS9-32">
          <mxGeometry width="50" height="50" relative="1" as="geometry">
            <mxPoint x="80" y="320" as="sourcePoint" />
            <mxPoint x="130" y="270" as="targetPoint" />
          </mxGeometry>
        </mxCell>
      </root>
    </mxGraphModel>
  </diagram>
</mxfile>
